<svg width="571" height="63" viewBox="0 0 571 63" fill="none" xmlns="http://www.w3.org/2000/svg">
<mask id="mask0_41_270" style="mask-type:luminance" maskUnits="userSpaceOnUse" x="0" y="0" width="571" height="63">
<path d="M571 0H0V63H571V0Z" fill="white"/>
</mask>
<g mask="url(#mask0_41_270)">
<path d="M0 18.6153V17.1927L13.0283 5.97461H14.0085L14.6484 6.63848L14.0085 15.2146H22.2857L22.7894 15.7565V18.6153L22.2857 19.1301H14.0085V37.4882C13.8853 39.133 14.3694 40.7661 15.3699 42.0811C15.8392 42.582 16.412 42.9759 17.0489 43.2355C17.6858 43.4951 18.3716 43.6143 19.0592 43.5849C21.673 43.5849 23.4564 42.1217 24.5047 39.1682L25.1718 38.9243L25.8661 39.1682L26.22 39.7372C26.0542 40.5706 25.8406 41.3939 25.5802 42.203C25.3174 43.003 24.9561 43.7675 24.5047 44.4791C24.0337 45.2475 23.419 45.919 22.6941 46.4572C21.8709 47.0603 20.95 47.5186 19.9713 47.812C18.6777 48.1715 17.3391 48.3449 15.9961 48.3269C14.612 48.3393 13.2342 48.1383 11.912 47.7307C10.6997 47.3294 9.57644 46.6992 8.60387 45.8746C7.57586 44.9477 6.79077 43.785 6.31676 42.4875C5.72 40.8885 5.42463 39.1937 5.44549 37.4882V21.6772C5.44266 21.3349 5.36862 20.9968 5.22804 20.6844C5.08746 20.3719 4.88338 20.0918 4.62866 19.8617C4.37995 19.614 4.08185 19.421 3.75358 19.295C3.42531 19.1689 3.07416 19.1128 2.72274 19.1301H0.544549L0 18.6153Z" fill="white"/>
<path d="M28.0312 46.8643V44.0056L28.535 43.4636H29.3382C30.0167 43.4191 30.6558 43.1308 31.1367 42.6522C31.6175 42.1737 31.9073 41.5376 31.952 40.8624V9.75525C31.9465 9.41535 31.8712 9.08015 31.7307 8.77027C31.5903 8.46039 31.3877 8.18237 31.1353 7.95332C30.905 7.70684 30.6271 7.50903 30.3184 7.3717C30.0096 7.23436 29.6763 7.16031 29.3382 7.15396H28.6712L28.0312 6.51719V4.53913L38.6227 0.474609H40.5695L41.2502 1.13848L40.5695 7.11332V19.1443C41.8875 17.5565 43.556 16.2928 45.445 15.4515C47.334 14.6102 49.3925 14.2141 51.4605 14.294C54.566 14.1391 57.6169 15.1496 60.0099 17.1256C61.114 18.1923 61.972 19.4851 62.5243 20.9144C63.0767 22.3438 63.3104 23.8755 63.2091 25.4036V40.8624C63.2156 41.2001 63.2915 41.533 63.4319 41.8405C63.5724 42.148 63.7746 42.4237 64.026 42.6507C64.2572 42.9007 64.5367 43.1016 64.8479 43.2413C65.159 43.381 65.4953 43.4566 65.8366 43.4636H66.6126L67.1571 44.0056V46.8643L66.6126 47.3656H51.1746L50.6028 46.8643V44.0056L51.1474 43.4636H51.9234C52.2647 43.4566 52.601 43.381 52.9122 43.2413C53.2233 43.1016 53.5028 42.9007 53.7339 42.6507C53.9853 42.4237 54.1875 42.148 54.3279 41.8405C54.4684 41.533 54.5443 41.2001 54.5508 40.8624V25.7424C54.6071 24.9034 54.4927 24.0618 54.2143 23.2679C53.9359 22.474 53.4993 21.7443 52.9307 21.1224C52.3323 20.5568 51.6236 20.1195 50.8485 19.8375C50.0734 19.5556 49.2484 19.4349 48.4246 19.483C47.3873 19.4725 46.3592 19.6767 45.4054 20.0825C44.4516 20.4883 43.5929 21.0869 42.8839 21.8404C42.1009 22.6655 41.4925 23.6387 41.0949 24.7024C40.6973 25.766 40.5187 26.8983 40.5695 28.032V40.903C40.6146 41.5804 40.9064 42.2183 41.3899 42.6971C41.8735 43.176 42.516 43.4629 43.1969 43.5043H43.9865L44.5038 44.0462V46.9049L43.9865 47.4062H28.5894L28.0312 46.8643Z" fill="white"/>
<path d="M70.0977 31.0529C70.0779 28.0608 70.8881 25.1213 72.4392 22.558C73.9698 20.0308 76.1443 17.9509 78.7424 16.529C81.1531 15.2404 83.8207 14.4991 86.5536 14.3586C89.2864 14.218 92.0166 14.6816 94.5479 15.7161C96.5068 16.5439 98.2351 17.8316 99.585 19.469C100.859 21.053 101.836 22.8519 102.471 24.78C103.147 26.8024 103.482 28.9218 103.465 31.0529L102.607 31.5542L78.7288 33.5864C78.868 34.7993 79.2463 35.9729 79.842 37.04C80.4377 38.1071 81.2391 39.0467 82.2003 39.8051C84.2959 41.4269 86.8989 42.2617 89.5517 42.1626C92.0064 42.2548 94.4423 41.7024 96.6145 40.5608C98.7868 39.4193 100.619 37.7288 101.927 35.6593L102.594 35.4019L103.302 35.6593L103.655 36.3232C102.774 39.8391 100.705 42.9465 97.7953 45.1246C94.8854 47.3027 91.3116 48.419 87.673 48.2864C84.4899 48.3506 81.3453 47.5846 78.5518 46.0645C75.9321 44.616 73.7722 42.4665 72.3167 39.8593C70.8164 37.1673 70.0514 34.1309 70.0977 31.0529ZM78.5926 29.4L78.756 29.8471L91.9477 28.8039C92.3592 28.8123 92.7681 28.7374 93.1495 28.5836C93.531 28.4299 93.8771 28.2006 94.1667 27.9097C94.6205 27.377 94.8626 26.6975 94.8474 25.9993C94.9546 23.9238 94.2467 21.8882 92.8734 20.3226C92.2076 19.6223 91.3993 19.0715 90.5025 18.707C89.6057 18.3425 88.641 18.1727 87.673 18.209C86.4328 18.1667 85.2005 18.4215 84.0799 18.952C82.9593 19.4825 81.9832 20.2731 81.2337 21.2574C79.5282 23.6343 78.6054 26.4792 78.5926 29.4Z" fill="white"/>
<path d="M127.561 31.3109C127.53 28.8553 127.959 26.4156 128.827 24.1167C129.545 22.154 130.677 20.3671 132.147 18.8762C133.617 17.3852 135.391 16.2247 137.349 15.4728C139.332 14.7057 141.443 14.3196 143.571 14.3347C145.464 14.2787 147.349 14.6038 149.113 15.2906C150.877 15.9774 152.483 17.0117 153.835 18.3315V9.76893C153.828 9.43053 153.754 9.09689 153.616 8.78749C153.478 8.4781 153.28 8.19917 153.032 7.96699C152.799 7.72011 152.519 7.52217 152.208 7.38487C151.897 7.24758 151.562 7.17371 151.221 7.16764H150.554L149.915 6.53086V4.5528L160.506 0.488281H162.453L163.093 1.15215L162.453 7.12699V40.8625C162.498 41.5399 162.79 42.1778 163.273 42.6566C163.757 43.1354 164.399 43.4224 165.08 43.4638H165.843L166.387 44.0057V46.8644L165.843 47.3657H154.38L153.862 46.8644V44.0057C152.548 45.4359 150.934 46.5609 149.134 47.3008C147.335 48.0406 145.393 48.3773 143.448 48.287C141.317 48.345 139.198 47.9496 137.233 47.1272C135.268 46.3047 133.502 45.0742 132.053 43.518C129.006 40.1924 127.392 35.8087 127.561 31.3109ZM136.682 26.4199C136.333 28.0267 136.164 29.667 136.178 31.3109C136.164 32.9547 136.333 34.5951 136.682 36.2018C136.99 37.6426 137.498 39.0335 138.193 40.3341C138.834 41.5807 139.81 42.6264 141.011 43.3554C142.281 44.096 143.733 44.4712 145.204 44.4393C146.64 44.4568 148.052 44.0819 149.288 43.3554C150.481 42.6362 151.462 41.6176 152.134 40.4018C152.853 39.1018 153.38 37.7056 153.699 36.256C154.389 33.0315 154.389 29.6986 153.699 26.4741C153.378 25.0209 152.85 23.6205 152.134 22.3147C151.457 21.1058 150.477 20.0927 149.288 19.3747C148.052 18.6482 146.64 18.2733 145.204 18.2909C143.733 18.2589 142.281 18.6341 141.011 19.3747C139.817 20.0889 138.842 21.1151 138.193 22.3418C137.501 23.6245 136.992 24.9971 136.682 26.4199Z" fill="white"/>
<path d="M169.382 31.0526C169.353 28.0594 170.164 25.1176 171.723 22.5577C173.25 20.0276 175.426 17.9469 178.026 16.5287C180.435 15.2403 183.1 14.4991 185.831 14.3586C188.561 14.218 191.289 14.6815 193.818 15.7158C195.781 16.5365 197.511 17.8253 198.855 19.4687C200.129 21.0553 201.11 22.8533 201.755 24.7797C202.42 26.8044 202.751 28.9227 202.735 31.0526L201.878 31.5539L177.999 33.5861C178.292 36.0319 179.539 38.2653 181.471 39.8048C183.573 41.4245 186.179 42.2588 188.836 42.1622C191.29 42.2545 193.726 41.702 195.899 40.5605C198.071 39.419 199.903 37.7285 201.211 35.659L201.878 35.4016L202.586 35.659L202.926 36.3229C202.05 39.8389 199.984 42.9475 197.076 45.1262C194.168 47.3048 190.595 48.4206 186.957 48.2861C183.77 48.3501 180.621 47.5842 177.822 46.0642C175.18 44.6086 173.001 42.4447 171.533 39.8184C170.068 37.1301 169.327 34.1103 169.382 31.0526ZM177.877 29.3997L178.04 29.8468L191.218 28.8035C191.632 28.8122 192.043 28.7375 192.426 28.5838C192.81 28.4301 193.159 28.2007 193.451 27.9093C193.9 27.3747 194.137 26.6954 194.118 25.999C194.231 23.9227 193.522 21.8849 192.144 20.3222C191.48 19.6237 190.674 19.0739 189.779 18.7095C188.885 18.3451 187.923 18.1744 186.957 18.2087C185.717 18.1664 184.485 18.4212 183.364 18.9517C182.243 19.4821 181.267 20.2728 180.518 21.2571C178.807 23.6312 177.883 26.4779 177.877 29.3997Z" fill="white"/>
<path d="M206.057 44.7112L207.813 37.6931L208.48 37.0292H210.427L211.107 37.6931C210.997 39.5593 211.514 41.4088 212.578 42.9499C213.085 43.5834 213.739 44.0854 214.483 44.4133C215.227 44.7412 216.04 44.8852 216.852 44.8331C217.909 44.8637 218.942 44.5178 219.766 43.8576C220.496 43.2941 221.06 42.5453 221.399 41.6899C221.697 40.9701 221.867 40.2047 221.903 39.4273C221.916 38.7977 221.805 38.1717 221.576 37.5847C221.387 37.097 221.126 36.6402 220.8 36.2299C220.386 35.7854 219.892 35.4224 219.344 35.1596C218.729 34.8239 218.092 34.5297 217.438 34.2789C216.839 34.0486 215.995 33.7505 214.906 33.3983C212.661 32.7489 210.634 31.5085 209.038 29.8079C207.669 28.2901 206.917 26.3197 206.928 24.2802C206.89 22.8991 207.177 21.5283 207.765 20.277C208.354 19.0256 209.228 17.9283 210.318 17.0725C212.747 15.1954 215.767 14.2354 218.84 14.3628C221.805 14.2945 224.745 14.9113 227.43 16.1647L227.839 16.8015L228.124 23.9821L227.485 24.6189H225.511L224.871 23.9821C224.943 22.3554 224.432 20.7561 223.428 19.4705C222.927 18.8869 222.299 18.4256 221.591 18.1226C220.882 17.8195 220.113 17.6827 219.344 17.7228C218.059 17.6572 216.796 18.0729 215.804 18.8879C215.356 19.2863 215.001 19.7782 214.766 20.3285C214.531 20.8789 214.42 21.4741 214.443 22.0718C214.434 22.7768 214.587 23.4744 214.892 24.1109C215.196 24.7475 215.643 25.306 216.199 25.7434C217.756 26.9367 219.525 27.8283 221.413 28.3718C222.694 28.6944 223.946 29.1203 225.157 29.6454C226.132 30.0997 227.047 30.6732 227.879 31.3525C228.712 32.0253 229.366 32.8904 229.785 33.8725C230.256 35.067 230.482 36.3428 230.452 37.6254C230.5 39.7302 229.849 41.792 228.601 43.4918C227.402 45.1095 225.77 46.3584 223.891 47.0957C221.859 47.875 219.697 48.2612 217.519 48.2337C213.609 48.3623 209.744 47.37 206.383 45.375L206.057 44.7112Z" fill="white"/>
<path d="M232.264 46.8644V44.0057L232.781 43.4638H233.584C234.263 43.4193 234.902 43.1309 235.383 42.6524C235.864 42.1739 236.153 41.5378 236.198 40.8625V24.469C236.156 23.7913 235.868 23.1519 235.387 22.6706C234.906 22.1893 234.265 21.899 233.584 21.8541H232.904L232.264 21.2173V19.2528L242.869 15.1883H244.816L245.483 15.8522L244.816 21.827V40.7948C244.86 41.47 245.15 42.1061 245.631 42.5846C246.112 43.0632 246.751 43.3515 247.429 43.396H248.233L248.736 43.938V46.7967L248.233 47.298H232.795L232.264 46.8644ZM235.136 5.41992C235.126 4.70379 235.26 3.99287 235.531 3.32951C235.803 2.66614 236.205 2.06389 236.715 1.55863C237.206 1.05622 237.795 0.658895 238.446 0.390982C239.097 0.12307 239.796 -0.00978413 240.5 0.000560895C241.222 -0.0079375 241.938 0.129362 242.605 0.404153C243.271 0.678944 243.875 1.08552 244.38 1.59927C244.895 2.09399 245.305 2.68766 245.583 3.34436C245.862 4.00106 246.004 4.70715 246 5.41992C246.007 6.12525 245.867 6.8244 245.588 7.47286C245.309 8.12132 244.898 8.70487 244.38 9.18637C243.881 9.71121 243.279 10.1287 242.612 10.413C241.945 10.6973 241.226 10.8424 240.5 10.8393C239.795 10.8495 239.095 10.7152 238.444 10.4449C237.793 10.1745 237.204 9.7738 236.715 9.26766C236.198 8.77075 235.79 8.17194 235.518 7.50943C235.246 6.84693 235.116 6.13528 235.136 5.41992Z" fill="white"/>
<path d="M251.078 46.187V42.4747L257.749 35.3347C256.172 34.3178 254.849 32.9553 253.883 31.3515C252.918 29.7427 252.419 27.9002 252.439 26.027C252.419 24.4478 252.749 22.8836 253.406 21.4457C254.062 20.0079 255.029 18.7318 256.238 17.7083C258.833 15.4337 262.202 14.2275 265.658 14.3347C267.43 14.3275 269.189 14.6255 270.859 15.2153H279.776L280.28 15.7573V18.616L279.776 19.1308H276.359C278.188 21.3305 279.07 24.1595 278.815 27.0032C278.561 29.8469 277.189 32.4757 274.997 34.3186C272.407 36.616 269.032 37.8421 265.563 37.7463C264.112 37.7473 262.67 37.5233 261.288 37.0824L258.77 39.6837H271.798C274.902 39.489 277.973 40.4177 280.443 42.2986C281.442 43.1204 282.24 44.1571 282.778 45.3305C283.315 46.5039 283.578 47.7835 283.547 49.0728C283.602 51.8358 282.633 54.5221 280.824 56.6192C278.915 58.7971 276.471 60.445 273.731 61.4018C270.748 62.4622 267.601 62.9896 264.433 62.9599C260.295 62.9599 257.118 62.0973 254.904 60.3721C253.882 59.6552 253.048 58.7057 252.47 57.6027C251.892 56.4998 251.588 55.2753 251.582 54.0315C251.731 51.8322 252.703 49.7684 254.305 48.2463L255.666 46.6882H251.582L251.078 46.187ZM256.306 53.625C256.306 56.7412 258.988 58.2992 264.351 58.2992C266.12 58.3102 267.878 58.0263 269.552 57.4592C271.033 56.9744 272.379 56.1534 273.486 55.0612C273.964 54.5948 274.344 54.0383 274.604 53.4242C274.863 52.81 274.997 52.1506 274.997 51.4844C275.021 50.8041 274.873 50.1287 274.566 49.5204C274.259 48.912 273.804 48.39 273.241 48.0024C271.771 47.0263 270.023 46.551 268.259 46.6476H261.016L257.939 50.1295C256.961 51.0402 256.375 52.2933 256.306 53.625ZM261.384 20.3231C260.274 22.013 259.735 24.0112 259.845 26.027C259.738 28.0467 260.276 30.0484 261.384 31.7444C261.893 32.3971 262.545 32.9254 263.291 33.2888C264.036 33.6522 264.855 33.8411 265.686 33.8411C266.516 33.8411 267.335 33.6522 268.081 33.2888C268.826 32.9254 269.479 32.3971 269.988 31.7444C271.078 30.0422 271.607 28.043 271.499 26.027C271.609 24.0112 271.07 22.013 269.96 20.3231C269.451 19.6754 268.8 19.1515 268.057 18.7913C267.314 18.431 266.498 18.2438 265.672 18.2438C264.846 18.2438 264.03 18.431 263.287 18.7913C262.544 19.1515 261.893 19.6754 261.384 20.3231Z" fill="white"/>
<path d="M285.52 46.865V44.0063L286.023 43.4644H286.826C287.505 43.4199 288.144 43.1315 288.625 42.653C289.106 42.1744 289.396 41.5384 289.44 40.8631V24.4695C289.399 23.7919 289.11 23.1525 288.629 22.6712C288.148 22.1899 287.507 21.8996 286.826 21.8547H286.159L285.52 21.2179V19.7276L286.023 19.0637L295.417 15.216H297.391L298.031 15.8799L297.391 20.107C298.595 18.3366 300.211 16.8819 302.101 15.8663C304.117 14.8211 306.363 14.2948 308.636 14.3353C311.686 14.1728 314.683 15.1815 317.008 17.1534C318.096 18.2316 318.937 19.5302 319.475 20.961C320.013 22.3918 320.235 23.9212 320.126 25.445V40.8631C320.17 41.5384 320.46 42.1744 320.941 42.653C321.422 43.1315 322.061 43.4199 322.739 43.4644H323.543L324.046 44.0063V46.865L323.543 47.3663H308.118L307.601 46.865V44.0063L308.118 43.4644H308.908C309.589 43.423 310.231 43.1361 310.715 42.6572C311.199 42.1784 311.49 41.5405 311.535 40.8631V25.7431C311.595 24.8889 311.474 24.0318 311.181 23.2268C310.888 22.4218 310.429 21.6868 309.834 21.0689C308.614 19.9747 307.009 19.4049 305.368 19.4837C304.379 19.4607 303.397 19.6566 302.493 20.0572C301.589 20.4579 300.785 21.0533 300.141 21.8005C298.683 23.5431 297.939 25.7685 298.058 28.0328V40.9037C298.103 41.579 298.392 42.2151 298.873 42.6936C299.354 43.1721 299.993 43.4605 300.672 43.505H301.475L301.992 44.047V46.9057L301.475 47.407H286.023L285.52 46.865Z" fill="white"/>
<path d="M347.027 58.6783L347.545 58.177H348.334C349.02 58.1349 349.666 57.8441 350.15 57.3597C350.634 56.8753 350.923 56.2308 350.962 55.5486V24.4957C350.92 23.8158 350.63 23.1747 350.146 22.6931C349.662 22.2114 349.017 21.9226 348.334 21.8808H347.667L347.027 21.2576V19.7538L347.545 19.0899L356.965 15.215H358.939L359.579 15.8925L358.939 20.1467C360.126 18.3578 361.746 16.8948 363.65 15.8925C365.595 14.8519 367.772 14.316 369.98 14.3344C372.1 14.25 374.214 14.6065 376.188 15.3809C378.162 16.1554 379.951 17.3309 381.443 18.8325C384.383 21.8267 385.854 25.9996 385.854 31.3105C385.887 33.7751 385.457 36.2241 384.588 38.5318C383.88 40.4952 382.753 42.2824 381.284 43.77C379.815 45.2577 378.039 46.4104 376.079 47.1486C374.096 47.9156 371.985 48.3018 369.858 48.2867C367.863 48.3113 365.888 47.8997 364.072 47.0808C362.397 46.3444 360.874 45.3064 359.579 44.0189V55.5486C359.585 55.8885 359.66 56.2237 359.8 56.5336C359.941 56.8435 360.144 57.1215 360.396 57.3505C360.624 57.6013 360.901 57.8029 361.21 57.9428C361.519 58.0826 361.853 58.1577 362.193 58.1634H362.996L363.5 58.6647V61.5234L362.996 62.0654H347.545L347.027 61.5234V58.6783ZM359.702 26.4196C359.355 28.0268 359.187 29.6668 359.198 31.3105C359.188 32.949 359.352 34.5839 359.688 36.1879C359.996 37.6367 360.515 39.0332 361.226 40.3338C361.872 41.5776 362.846 42.6223 364.044 43.355C365.281 44.0803 366.693 44.4551 368.129 44.4389C369.613 44.4672 371.076 44.0925 372.362 43.355C373.557 42.6408 374.531 41.6147 375.18 40.3879C375.879 39.0903 376.383 37.6982 376.678 36.2557C377.011 34.6468 377.171 33.0072 377.154 31.3647C377.171 29.7222 377.011 28.0826 376.678 26.4738C376.383 25.0312 375.879 23.6392 375.18 22.3415C374.531 21.1148 373.557 20.0886 372.362 19.3744C371.076 18.637 369.613 18.2623 368.129 18.2905C366.707 18.2616 365.304 18.6263 364.079 19.3439C362.853 20.0616 361.851 21.1041 361.186 22.355C360.505 23.6353 360.006 25.0031 359.702 26.4196Z" fill="white"/>
<path d="M388.848 46.8635V44.0048L389.365 43.4628H390.155C390.839 43.4361 391.489 43.1534 391.973 42.6713C392.458 42.1891 392.742 41.5429 392.768 40.8615V24.468C392.745 23.7842 392.462 23.1347 391.978 22.6497C391.493 22.1647 390.841 21.8801 390.155 21.8531H389.488L388.848 21.2164V19.726L389.365 19.0622L398.772 15.2144H400.76L401.4 15.8783L400.76 20.688C401.536 18.8682 402.763 17.274 404.326 16.0544C405.893 14.8833 407.813 14.2766 409.772 14.3338C411.209 14.2819 412.609 14.7982 413.665 15.7699C414.167 16.2263 414.564 16.7838 414.832 17.4053C415.1 18.0267 415.231 18.6978 415.217 19.3738C415.238 20.0257 415.129 20.6753 414.895 21.2847C414.661 21.8942 414.308 22.4512 413.856 22.9235C413.401 23.3739 412.859 23.7265 412.262 23.9596C411.664 24.1926 411.026 24.3011 410.385 24.2783C409.735 24.2913 409.09 24.1677 408.492 23.9156C407.894 23.6634 407.356 23.2884 406.913 22.8151C406.463 22.3415 406.111 21.7842 405.877 21.1751C405.644 20.5661 405.533 19.9171 405.552 19.2654C404.196 20.1896 403.156 21.5036 402.57 23.0319C401.764 24.877 401.365 26.8729 401.4 28.8848V40.9293C401.426 41.6106 401.71 42.2568 402.195 42.739C402.679 43.2212 403.329 43.5038 404.013 43.5306H404.803L405.32 44.0725V46.9312L404.803 47.4325H389.351L388.848 46.8635Z" fill="white"/>
<path d="M418.636 31.3105C418.611 29.009 419.075 26.7282 419.997 24.6176C420.892 22.5796 422.183 20.7378 423.795 19.1982C425.425 17.6598 427.339 16.4498 429.431 15.635C433.835 13.9003 438.737 13.9003 443.14 15.635C445.236 16.4498 447.155 17.6597 448.79 19.1982C450.407 20.7343 451.698 22.577 452.588 24.6176C453.54 26.7212 454.027 29.0035 454.018 31.3105C454.044 34.3492 453.214 37.3343 451.622 39.9273C450.056 42.5068 447.829 44.6251 445.169 46.0647C442.447 47.5163 439.408 48.2758 436.32 48.2758C433.232 48.2758 430.192 47.5163 427.471 46.0647C424.807 44.6305 422.578 42.511 421.018 39.9273C419.431 37.3329 418.605 34.3478 418.636 31.3105ZM429.608 21.8266C427.915 24.6936 427.097 27.9888 427.253 31.3105C427.097 34.6322 427.915 37.9274 429.608 40.7944C430.358 41.8841 431.364 42.7756 432.538 43.3916C433.712 44.0075 435.02 44.3294 436.347 44.3294C437.674 44.3294 438.982 44.0075 440.156 43.3916C441.33 42.7756 442.336 41.8841 443.086 40.7944C444.789 37.9313 445.613 34.6342 445.455 31.3105C445.613 27.9868 444.789 24.6897 443.086 21.8266C442.336 20.7368 441.33 19.8454 440.156 19.2294C438.982 18.6135 437.674 18.2916 436.347 18.2916C435.02 18.2916 433.712 18.6135 432.538 19.2294C431.364 19.8454 430.358 20.7368 429.608 21.8266Z" fill="white"/>
<path d="M453.622 57.7842C453.609 57.1516 453.723 56.5227 453.957 55.9342C454.19 55.3457 454.54 54.8094 454.984 54.3565C455.451 53.8968 456.01 53.5389 456.624 53.3057C457.238 53.0724 457.894 52.9689 458.55 53.0017C459.203 52.9733 459.853 53.0885 460.456 53.3391C461.058 53.5897 461.598 53.9694 462.036 54.4513C462.963 55.5053 463.45 56.8722 463.397 58.272C465.003 57.2423 465.82 55.3726 465.82 52.69L465.303 51.9584L461.505 50.4139L460.987 49.8449V24.4688C460.964 23.785 460.681 23.1355 460.196 22.6504C459.712 22.1654 459.06 21.8809 458.373 21.8539H457.706L457.066 21.2171V19.2526L467.672 15.1881H469.673L470.34 15.852L469.673 21.8539V52.1346C469.709 53.8967 469.404 55.6492 468.774 57.2965C468.285 58.6174 467.459 59.7892 466.378 60.6971C465.441 61.4664 464.371 62.0587 463.22 62.4449C462.082 62.8157 460.891 63.0032 459.694 63.0004C458.112 63.0678 456.561 62.5516 455.338 61.5507C454.787 61.0906 454.347 60.5134 454.05 59.8615C453.753 59.2096 453.607 58.4998 453.622 57.7842ZM459.939 5.41973C459.932 4.71136 460.067 4.00873 460.336 3.35278C460.605 2.69683 461.002 2.10068 461.505 1.59908C461.994 1.08765 462.583 0.681807 463.237 0.406778C463.89 0.13175 464.593 -0.00658538 465.303 0.000371727C466.025 -0.00812667 466.74 0.129173 467.407 0.403964C468.074 0.678755 468.678 1.08533 469.183 1.59908C469.696 2.09447 470.104 2.68857 470.38 3.34532C470.656 4.00208 470.795 4.70782 470.789 5.41973C470.799 6.12418 470.661 6.82298 470.385 7.4715C470.108 8.12002 469.699 8.70401 469.183 9.18618C468.684 9.71102 468.082 10.1285 467.415 10.4128C466.748 10.6971 466.029 10.8422 465.303 10.8391C464.592 10.8459 463.888 10.7062 463.234 10.4287C462.58 10.1512 461.991 9.74201 461.505 9.22682C460.995 8.73342 460.592 8.14069 460.323 7.48565C460.054 6.8306 459.923 6.12732 459.939 5.41973Z" fill="white"/>
<path d="M475.867 31.0529C475.839 28.0597 476.65 25.1179 478.209 22.558C479.739 20.0308 481.914 17.9509 484.512 16.529C486.923 15.2404 489.59 14.4991 492.323 14.3586C495.056 14.218 497.786 14.6816 500.317 15.7161C502.274 16.5406 503.999 17.829 505.341 19.469C506.614 21.0557 507.596 22.8536 508.241 24.78C508.91 26.8039 509.245 28.9223 509.234 31.0529L508.363 31.5542L484.485 33.5864C484.777 36.0323 486.024 38.2657 487.956 39.8051C490.058 41.4248 492.665 42.2591 495.321 42.1626C497.776 42.2548 500.212 41.7024 502.384 40.5608C504.556 39.4193 506.388 37.7288 507.696 35.6593L508.363 35.4019L509.071 35.6593L509.425 36.3232C508.544 39.8391 506.475 42.9465 503.565 45.1246C500.655 47.3027 497.081 48.419 493.442 48.2864C490.255 48.3486 487.107 47.5827 484.308 46.0645C481.691 44.6119 479.532 42.4634 478.073 39.8593C476.582 37.1641 475.822 34.1291 475.867 31.0529ZM484.362 29.4L484.526 29.8471L497.704 28.8039C498.117 28.8141 498.529 28.7401 498.913 28.5863C499.297 28.4326 499.645 28.2023 499.936 27.9097C500.385 27.375 500.622 26.6957 500.603 25.9993C500.716 23.923 500.008 21.8852 498.629 20.3226C497.965 19.624 497.159 19.0743 496.265 18.7098C495.37 18.3454 494.408 18.1747 493.442 18.209C492.202 18.1667 490.97 18.4215 489.849 18.952C488.729 19.4825 487.753 20.2731 487.003 21.2574C485.292 23.6315 484.369 26.4782 484.362 29.4Z" fill="white"/>
<path d="M514.081 38.5332C513.16 36.289 512.697 33.8849 512.72 31.4609C512.693 28.9965 513.19 26.5543 514.176 24.2938C515.073 22.2257 516.411 20.3765 518.097 18.8745C519.749 17.4388 521.65 16.3141 523.706 15.5551C526.368 14.6066 529.204 14.2367 532.022 14.4704C534.84 14.7041 537.575 15.536 540.042 16.91L540.519 17.6551L540.832 25.7841L540.328 26.2854H537.742L537.197 25.7841V24.619C537.229 23.7754 537.076 22.9351 536.75 22.1561C536.423 21.3771 535.93 20.678 535.305 20.1074C533.927 18.9202 532.143 18.3044 530.322 18.3867C528.902 18.3529 527.5 18.7077 526.268 19.4125C525.037 20.1173 524.023 21.1449 523.338 22.3835C522.622 23.6532 522.103 25.0236 521.8 26.448C521.512 27.9113 521.379 29.4009 521.405 30.8919C521.379 32.8912 521.783 34.873 522.59 36.7041C523.359 38.4168 524.595 39.881 526.156 40.9312C527.807 42.0242 529.756 42.5869 531.738 42.5435C533.717 42.608 535.671 42.0978 537.364 41.0754C539.056 40.0529 540.412 38.5623 541.268 36.7854L541.826 36.5822L542.534 36.8396L542.847 37.49C542.432 38.9227 541.866 40.3078 541.159 41.6222C540.464 42.8725 539.593 44.0176 538.572 45.0229C537.417 46.1398 536.02 46.9787 534.488 47.4751C531.616 48.4582 528.529 48.6486 525.557 48.026C522.585 47.4033 519.837 45.991 517.607 43.939C516.06 42.4064 514.858 40.5637 514.081 38.5332Z" fill="white"/>
<path d="M544.795 18.6153V17.1927L557.823 5.97461H558.803L559.443 6.63848L558.803 15.2146H567.067L567.584 15.7565V18.6153L567.067 19.1301H558.803V37.4882C558.68 39.133 559.164 40.7661 560.165 42.0811C560.64 42.5892 561.222 42.9873 561.869 43.2471C562.516 43.507 563.212 43.6223 563.909 43.5849C566.509 43.5849 568.306 42.1217 569.354 39.1682L570.035 38.9243L570.729 39.1682L571.083 39.7372C570.917 40.5706 570.704 41.3939 570.443 42.203C570.172 43.0043 569.801 43.7688 569.34 44.4791C568.869 45.2475 568.255 45.919 567.53 46.4572C566.705 47.0578 565.785 47.5159 564.807 47.812C563.514 48.1715 562.175 48.3449 560.832 48.3269C559.448 48.3416 558.07 48.1404 556.748 47.7307C555.535 47.3294 554.412 46.6992 553.44 45.8746C552.403 44.9547 551.617 43.7899 551.153 42.4875C550.567 40.9006 550.286 39.2188 550.322 37.5288V21.6772C550.319 21.3349 550.245 20.9968 550.105 20.6844C549.964 20.3719 549.76 20.0918 549.505 19.8617C549.271 19.6173 548.991 19.4219 548.68 19.2869C548.369 19.152 548.034 19.0802 547.695 19.0759H545.476L544.795 18.6153Z" fill="white"/>
</g>
</svg>
